<!-- Generated by IcoMoon.io -->
<svg version="1.1" xmlns="http://www.w3.org/2000/svg" width="37" height="32" viewBox="0 0 37 32">
<title>twiter</title>
<path fill="#f4f4fd" d="M36.571 4.66c-1.36 0.597-2.809 0.992-4.32 1.184 1.554-0.928 2.741-2.386 3.298-4.144-1.449 0.864-3.049 1.474-4.754 1.815-1.376-1.465-3.337-2.373-5.477-2.373-4.151 0-7.493 3.369-7.493 7.499 0 0.594 0.050 1.166 0.174 1.71-6.233-0.304-11.749-3.291-15.454-7.842-0.647 1.122-1.026 2.407-1.026 3.79 0 2.597 1.337 4.898 3.33 6.231-1.205-0.023-2.386-0.373-3.387-0.923 0 0.023 0 0.053 0 0.082 0 3.643 2.599 6.67 6.007 7.367-0.61 0.167-1.275 0.247-1.966 0.247-0.48 0-0.965-0.027-1.419-0.128 0.971 2.969 3.728 5.152 7.006 5.223-2.551 1.995-5.79 3.198-9.296 3.198-0.615 0-1.205-0.027-1.794-0.103 3.321 2.142 7.257 3.365 11.502 3.365 13.797 0 21.339-11.429 21.339-21.335 0-0.331-0.011-0.651-0.027-0.969 1.488-1.056 2.738-2.375 3.758-3.893z"></path>
</svg>
